<svg width="88" height="49" viewBox="0 0 88 49" fill="none" xmlns="http://www.w3.org/2000/svg">
<path d="M35.1042 0.171684C34.081 0.701174 33.75 1.23066 32.5463 4.15002C31.5082 6.7116 30.6656 9.60233 29.9735 13.0225C29.6876 14.4822 29.4168 15.8417 29.3716 16.0564C29.2964 16.3998 29.2061 16.4571 28.5892 16.5286C27.4457 16.6574 26.7235 16.8864 26.0766 17.3157C25.1287 17.9454 23.1125 19.8773 22.4956 20.7502C20.5848 23.4263 20.9007 27.8912 23.0674 28.9645C24.3613 29.6085 26.4978 29.2507 28.83 28.0057C29.2663 27.7767 29.6575 27.6193 29.7026 27.6622C29.7478 27.7052 29.9885 28.6067 30.2142 29.68C31.2373 34.3166 31.9746 35.4758 33.9607 35.5187C35.9016 35.5617 37.1504 33.9016 39.1064 28.6783L39.9189 26.5031L40.0844 27.4762C40.1897 28.02 40.3853 28.6497 40.5207 28.8786C41.0774 29.7659 42.3714 29.9805 44.0716 29.4797C45.9674 28.9216 47.7729 27.3903 48.796 25.4727C49.0217 25.0291 48.9164 25.1006 47.9534 25.9879C45.531 28.1774 43.4396 29.036 42.5369 28.1774C42.0704 27.7338 42.1908 27.2329 43.4396 24.242C44.6885 21.294 44.884 20.3209 44.4327 19.0473C44.1769 18.2888 43.876 18.0312 43.2591 18.0312C42.6572 18.0312 42.1306 18.804 41.5739 20.5356C41.3031 21.3656 41.2279 21.4801 41.1376 21.2082C41.0774 21.0365 40.9721 20.8933 40.8969 20.8933C40.8216 20.8933 40.5959 21.0365 40.3703 21.2082C40.0693 21.4658 39.8737 21.938 39.4675 23.412C38.5045 26.9181 37.5867 29.5512 36.8344 30.9823C36.0972 32.3704 35.2847 33.4866 35.1192 33.3292C34.9838 33.2004 34.1412 29.036 33.9005 27.2186C33.7651 26.2455 33.5996 24.4996 33.5394 23.3548C33.3889 20.8647 33.4792 20.4211 34.5775 18.1457C35.4953 16.2567 36.2326 14.0529 36.9097 11.1622C37.6469 8.05679 37.8425 5.86728 37.6168 3.10535C37.5266 1.88895 37.4062 0.801348 37.3611 0.672553C37.2557 0.414963 36.2476 -4.22845e-05 35.7361 -4.22845e-05C35.5555 -4.22845e-05 35.2697 0.085821 35.1042 0.171684ZM36.3379 2.00343C37.2407 5.65262 37.1655 9.11577 36.1423 12.5217C35.7812 13.7095 34.1111 18.1171 33.8403 18.575C33.2535 19.5625 33.7952 8.58628 34.5174 4.72244C34.728 3.54897 35.2245 1.93188 35.5104 1.38808C35.7662 0.901522 36.1423 1.17342 36.3379 2.00343ZM29.507 24.4996C29.5672 24.6713 29.2814 24.9432 28.5742 25.4441C27.3103 26.3314 27.0245 26.4745 26.4828 26.4745C25.5349 26.4745 24.8729 25.1006 24.9782 23.3548C25.0835 21.4658 26.7988 18.8899 28.4388 18.1171L29.2362 17.7307L29.3415 20.9935C29.4017 22.7823 29.477 24.3565 29.507 24.4996ZM41.1526 22.7967C41.1075 23.2832 40.8818 24.1705 40.6561 24.7572C39.8286 26.9324 39.8135 26.1453 40.626 23.4263C40.8818 22.582 41.1226 21.8951 41.1677 21.8951C41.2128 21.8951 41.1978 22.2958 41.1526 22.7967Z" fill="white"/>
<path d="M16.2531 13.6097C15.877 13.7957 15.5008 14.1105 15.3654 14.3681C15.0645 14.8976 15.0344 16.0997 15.2902 16.5576C15.7265 17.3018 17.0506 16.7007 17.6073 15.4987C17.8932 14.8833 17.9985 13.7671 17.8179 13.4666C17.6524 13.2233 16.9603 13.2805 16.2531 13.6097Z" fill="white"/>
<path d="M44.2366 13.5955C43.1533 14.0677 42.7019 15.5417 43.3188 16.615C43.5294 17.0014 44.2366 16.9585 44.7782 16.5292C45.4854 15.971 45.8916 15.0409 45.8315 14.1393C45.7863 13.4095 45.7713 13.3808 45.3349 13.3379C45.0942 13.3236 44.5977 13.4381 44.2366 13.5955Z" fill="white"/>
<path d="M10.2487 15.6555C9.8876 15.9561 9.85751 16.0276 10.023 16.3711C10.1133 16.5714 10.2938 16.7431 10.3992 16.7431C10.5195 16.7431 10.7151 16.8576 10.8505 17.0007C11.0762 17.244 11.0762 17.3585 10.7452 18.5463C9.7221 22.1525 8.03694 24.6998 5.50922 26.4457C5.25343 26.6174 5.2083 26.5745 4.93747 26.0021C4.77196 25.6443 4.39581 24.0415 4.10994 22.4387C3.40278 18.4604 2.96644 17.244 2.04864 16.7574C1.68753 16.5571 1.59726 16.5571 1.13083 16.7718C0.679453 16.9721 0.574131 17.1152 0.438717 17.7592C-0.313583 21.1078 -0.0728468 25.7302 0.965327 27.9054C1.4468 28.9071 1.95836 29.4366 2.90626 29.8516C4.87729 30.7388 6.03583 30.0662 8.14227 26.8178C9.692 24.4422 9.81237 24.1989 10.8054 21.4084C12.1295 17.7306 12.2649 16.5714 11.5427 15.6842C11.1665 15.2262 10.7904 15.2119 10.2487 15.6555Z" fill="white"/>
<path d="M58.1708 17.8026C57.0273 18.2462 56.1697 18.8759 55.4625 19.7775C54.8155 20.6075 54.1385 21.323 54.0031 21.323C53.9579 21.323 53.9429 20.8937 53.9579 20.3785C54.0632 18.6469 53.6871 17.8885 52.7241 17.8885C51.701 17.8885 51.3098 18.6899 50.1513 23.0832C49.3388 26.1027 49.3087 26.3317 49.3538 27.7914C49.399 29.5659 49.5795 29.8807 50.6478 30.0095C52.0621 30.1955 52.5887 29.5659 52.995 27.2905C53.1153 26.532 53.326 25.6734 53.4464 25.4015C53.8376 24.5286 56.1697 21.2801 56.9671 20.493C57.6743 19.8061 59.0284 19.0333 59.54 19.0333C59.8259 19.0333 59.6904 19.7918 58.8629 22.6253C57.7345 26.5893 57.5389 27.6053 57.5238 29.7662C57.5238 31.555 57.5539 31.7554 57.915 32.4995C58.8027 34.274 60.9543 34.8751 62.9855 33.902C64.2193 33.3295 65.0769 32.385 66.0699 30.5104C67.2736 28.2922 67.6498 26.6179 67.1683 25.7736C66.9577 25.4015 66.9577 25.4015 64.0538 30.4102C63.0457 32.1275 61.9173 32.7142 61.496 31.7268C61.165 30.9969 61.2703 29.7519 61.9323 26.7896C62.7147 23.3408 62.9253 21.7952 62.805 20.6075C62.6696 19.2623 62.489 18.7328 61.8721 18.0602L61.3305 17.4591H60.187C59.3293 17.4591 58.8027 17.545 58.1708 17.8026Z" fill="white"/>
<path d="M75.5325 17.8168C75.0811 17.917 74.2386 18.2318 73.6518 18.518C70.3416 20.1208 68.7769 22.1815 68.6114 25.1295C68.5211 26.8468 68.807 27.7054 69.7699 28.6213C71.3046 30.0666 73.2756 30.1239 75.8936 28.7787C76.5256 28.4496 77.0672 28.2063 77.0973 28.2349C77.1274 28.2635 76.9769 29.2366 76.7663 30.3958C76.33 32.8715 76.6911 32.2991 72.6437 36.9214C69.2583 40.7996 68.4007 42.0589 67.8741 43.9765C67.6183 44.9067 67.5732 47.0533 67.7838 47.9262C67.9945 48.7276 68.7618 49.0138 70.6125 48.9995C72.5384 48.9995 73.5013 48.656 74.7351 47.5827C76.1945 46.2948 76.8566 44.6205 77.6841 40.127C77.8947 38.9535 78.3762 36.8785 78.7524 35.5046C79.1285 34.1308 79.5348 32.3563 79.6551 31.5692L79.8808 30.1239L81.566 28.5068C83.552 26.5892 84.7557 25.7305 86.2302 25.1581C87.5392 24.6573 87.8401 24.414 87.8401 23.8559V23.4266L87.0277 23.5124C86.5913 23.5553 85.9594 23.7128 85.6284 23.8702C84.9363 24.2136 82.6493 26.0024 81.6713 26.9756C81.2951 27.3333 80.7986 27.734 80.5579 27.8628L80.1215 28.0775L80.2269 27.5909C80.6933 25.1438 80.8137 22.2102 80.4977 20.8793C80.3472 20.2639 80.1516 19.9062 79.6702 19.4196C79.3241 19.0618 78.8878 18.5753 78.6922 18.332C78.1355 17.6308 77.0823 17.4591 75.5325 17.8168ZM77.7894 19.4053C78.0151 19.5198 78.2408 19.6772 78.2859 19.7487C78.4063 19.9348 76.4804 23.9704 75.6077 25.3728C74.9307 26.4747 74.4943 26.8611 73.7571 26.9899C71.44 27.4049 72.2525 21.8095 74.7802 19.8489C75.8033 19.0618 76.7813 18.9187 77.7894 19.4053ZM75.2767 36.0914C75.1714 36.5064 74.7652 38.1092 74.389 39.6404C73.3809 43.7189 73.065 44.506 71.9064 45.8941C71.3347 46.5953 70.1912 47.2822 69.4088 47.3967C69.0026 47.454 68.7919 46.3091 69.0326 45.15C69.2282 44.1482 70.4771 41.7154 71.6958 39.9266C72.7039 38.4526 75.1865 35.3472 75.352 35.3472C75.4121 35.3472 75.3821 35.6907 75.2767 36.0914Z" fill="white"/>
<path d="M14.583 18.3898C13.9661 19.1482 12.4164 23.7991 12.1456 25.7024C11.965 26.9761 12.1305 28.264 12.5518 28.8651C13.1687 29.7666 14.3874 29.9813 16.0876 29.4804C17.8631 28.9653 19.6234 27.5485 20.5713 25.8742L21.0829 24.9726L19.9695 25.9887C18.1339 27.6487 16.6744 28.4644 15.5159 28.4787C14.6282 28.4787 14.2069 28.078 14.3122 27.3339C14.3573 27.0333 14.8689 25.6452 15.4707 24.2428C16.3284 22.2536 16.5842 21.4808 16.6293 20.751C16.7196 19.692 16.4939 18.7189 16.0575 18.3039C15.6513 17.9175 14.9592 17.9461 14.583 18.3898Z" fill="white"/>
</svg>
